<?xml version="1.0" standalone="no"?>
<svg version="1.0" xmlns="http://www.w3.org/2000/svg"
 width="512.000000pt" height="512.000000pt" viewBox="0 0 512.000000 512.000000"
 preserveAspectRatio="xMidYMid meet">

<g transform="translate(0.000000,512.000000) scale(0.100000,-0.100000)"
fill="#000000" stroke="none">
<path d="M3337 3964 c-4 -4 -7 -60 -7 -125 l0 -118 -117 -3 -118 -3 -3 -187
-2 -188 -93 0 c-107 0 -137 -13 -137 -60 0 -57 11 -60 241 -60 133 0 209 4
209 10 0 6 -77 10 -210 10 -202 0 -210 1 -220 21 -9 16 -8 25 6 40 16 18 36
19 469 19 488 0 481 1 473 -52 -3 -22 -7 -23 -105 -26 -133 -4 -136 -22 -5
-22 83 0 102 3 115 18 21 23 22 52 3 78 -14 18 -31 19 -369 22 -348 3 -355 3
-360 23 -3 11 -5 91 -4 177 l2 157 113 3 112 3 0 -101 c0 -67 4 -100 11 -100
8 0 10 30 8 98 l-4 97 93 3 93 3 -3 132 -3 132 -90 3 c-50 1 -94 0 -98 -4z
m153 -134 l0 -110 -70 0 -70 0 0 110 0 110 70 0 70 0 0 -110z"/>
<path d="M1874 3444 c-23 -14 -55 -24 -77 -24 -33 0 -40 -4 -53 -32 -9 -18
-22 -45 -29 -59 -11 -20 -12 -37 -4 -80 18 -99 21 -192 7 -218 -21 -40 -138
-95 -126 -60 3 8 13 16 24 18 45 8 54 29 54 123 0 81 -2 91 -24 111 -13 12
-27 38 -31 57 -11 51 -41 105 -70 128 -42 33 -127 46 -305 47 -157 0 -168 -1
-215 -25 -28 -14 -60 -40 -74 -60 -22 -34 -23 -40 -17 -171 7 -173 28 -310 71
-474 43 -165 87 -292 132 -377 41 -78 174 -230 301 -343 49 -44 88 -83 85 -87
-2 -5 -262 -5 -577 -2 -514 5 -573 4 -585 -10 -7 -9 -11 -23 -7 -31 5 -13 82
-15 636 -15 538 0 630 -2 630 -14 0 -28 51 -75 98 -90 26 -8 79 -18 117 -21
111 -10 115 -11 115 -45 0 -35 13 -32 -224 -64 -98 -14 -181 -28 -184 -31 -3
-3 -1 -9 4 -14 8 -8 90 -4 337 14 l98 8 -7 -74 c-3 -41 -8 -77 -10 -80 -2 -3
-86 -9 -186 -12 -188 -7 -255 -16 -269 -39 -4 -7 -7 -28 -6 -48 2 -30 5 -35
27 -35 21 0 25 5 25 32 0 37 4 38 155 49 81 5 93 4 78 -7 -16 -14 -22 -34 -19
-72 1 -14 8 -18 28 -15 22 2 29 9 33 33 5 27 10 30 65 42 33 7 90 13 127 13
58 0 92 -4 183 -25 15 -3 21 -12 20 -32 0 -23 4 -28 24 -28 37 0 50 29 29 65
l-17 30 27 0 c15 0 51 -3 80 -6 51 -7 52 -8 52 -39 0 -38 25 -54 48 -31 21 21
4 77 -28 93 -33 15 -261 29 -240 14 13 -9 13 -11 -2 -11 -10 0 -18 5 -18 11 0
6 -7 8 -15 5 -9 -3 -38 -1 -65 5 l-50 11 0 73 c0 41 3 76 8 78 4 2 77 -2 162
-9 209 -17 323 -18 318 -1 -3 7 -34 14 -84 19 -107 8 -364 76 -364 95 0 5 46
16 103 25 56 9 125 24 153 32 61 19 130 67 152 107 16 27 21 29 76 29 l59 0
-7 -57 c-11 -106 -9 -387 3 -391 19 -6 13 -42 -8 -42 -19 0 -18 2 -38 -163
l-6 -48 64 -1 c360 -3 353 -4 386 16 17 11 30 24 28 30 -2 6 -6 24 -10 40 -3
16 -26 48 -51 70 -40 37 -47 51 -65 121 -24 97 -48 165 -58 165 -5 0 -11 -23
-14 -52 -5 -41 -1 -69 25 -145 28 -86 33 -94 71 -115 56 -32 57 -45 1 -69 -72
-32 -135 -23 -217 30 -68 44 -81 67 -70 124 5 23 10 27 39 27 19 0 34 4 34 8
0 4 18 114 40 245 49 286 50 318 14 346 -15 12 -43 21 -63 22 -20 1 -47 5 -61
10 -17 6 -4 7 42 4 80 -5 101 -14 131 -59 12 -19 34 -49 49 -67 14 -19 77
-121 138 -227 79 -135 110 -196 102 -204 -6 -6 -14 -8 -19 -5 -5 4 -56 72
-114 152 -57 80 -105 141 -107 135 -6 -18 212 -329 231 -330 14 0 17 -10 17
-67 0 -38 3 -92 6 -120 l7 -53 59 0 c55 0 59 2 53 20 -8 24 -11 24 61 0 50
-17 68 -19 125 -11 36 5 80 16 98 25 27 15 30 19 20 37 -10 19 -16 20 -93 14
l-82 -7 -52 42 c-29 23 -56 49 -60 58 -3 9 -19 36 -34 58 -15 23 -28 54 -28
68 0 15 -9 45 -21 68 -11 22 -37 77 -56 122 -98 228 -123 289 -119 294 7 6
610 -38 617 -46 4 -4 4 -88 0 -187 l-6 -180 -167 0 c-92 -1 -170 -4 -174 -7
-21 -22 19 -28 178 -28 l171 0 -5 -130 c-5 -116 -4 -130 11 -130 13 0 21 26
40 130 l24 130 291 2 c235 2 291 6 291 16 0 11 -53 14 -287 12 -159 0 -288 3
-287 7 0 4 15 85 32 178 l33 170 34 2 c19 2 148 -5 285 -15 l250 -17 5 -365 5
-365 58 -3 57 -3 0 369 0 369 77 7 c42 3 100 6 130 6 l53 0 0 52 0 51 -227 -6
c-242 -5 -387 -1 -1078 34 -424 22 -441 24 -474 46 -19 13 -43 23 -55 23 -12
0 -129 7 -261 15 -132 8 -279 15 -327 15 -49 0 -88 4 -88 9 0 5 -3 16 -6 24
-4 12 16 16 118 21 68 4 179 14 248 22 90 10 238 14 525 13 l400 -1 -85 -18
c-47 -10 -102 -22 -123 -27 -42 -9 -48 -25 -14 -34 24 -7 416 -14 580 -11 90
2 97 3 97 22 0 19 7 20 141 20 107 0 140 -3 137 -12 -5 -15 -140 -58 -180 -58
-16 0 -28 -4 -28 -10 0 -6 -63 -10 -169 -10 -97 0 -172 -4 -176 -10 -7 -11
223 -20 592 -23 233 -2 253 -1 265 16 12 16 26 18 103 15 79 -3 90 -1 93 15 3
15 -5 17 -56 17 -33 0 -80 3 -106 6 -44 7 -46 8 -46 41 0 18 -6 35 -12 38 -7
2 -127 6 -267 9 -140 3 -256 7 -258 10 -2 2 21 116 51 252 39 178 52 252 44
261 -15 19 -437 18 -462 0 -13 -9 -32 -71 -65 -213 l-47 -199 -383 -3 c-305
-2 -382 0 -378 10 2 7 32 81 66 164 60 149 69 179 54 187 -5 2 -53 0 -107 -4
-72 -7 -105 -14 -119 -26 -10 -10 -45 -73 -78 -141 l-58 -123 -30 15 c-19 10
-56 16 -100 16 -59 0 -73 -3 -91 -22 -11 -12 -20 -25 -20 -29 0 -4 -32 1 -72
11 -66 18 -87 31 -88 55 -1 43 -41 325 -48 346 -13 33 -55 68 -119 98 -47 22
-51 27 -55 62 -3 30 0 39 12 39 37 0 58 29 65 91 5 42 12 62 24 66 9 4 19 11
23 17 13 19 8 54 -8 58 -9 2 -21 19 -28 39 -11 32 -10 36 11 52 27 21 31 72 8
103 -13 17 -14 16 -9 -21 l5 -40 -14 30 c-27 59 -61 70 -113 39z m-427 -25
c83 -15 118 -47 130 -122 l8 -52 -112 -3 c-95 -2 -114 -5 -122 -20 -4 -9 -12
-61 -15 -115 -6 -85 -5 -102 9 -117 14 -15 17 -44 19 -162 l2 -143 50 -145
c28 -80 58 -162 68 -182 9 -21 14 -38 10 -38 -9 0 -72 143 -104 239 -32 96
-70 258 -70 303 0 15 -4 30 -10 33 -16 10 -12 -68 10 -175 23 -112 78 -276
121 -362 l29 -58 -28 0 c-16 0 -36 8 -45 18 -36 40 -116 256 -163 442 -23 90
-27 135 -33 310 -5 182 -8 209 -27 240 -24 42 -78 80 -113 80 -14 0 -32 4 -40
9 -28 18 51 29 208 30 85 1 183 -4 218 -10z m537 -64 c-3 -8 -14 -17 -25 -20
-17 -6 -17 -8 -4 -21 8 -9 15 -29 15 -45 l0 -29 -85 0 -85 0 0 55 c0 62 -1 61
81 44 46 -10 54 -9 78 9 32 25 32 25 25 7z m-149 -139 c21 -56 24 -59 79 -54
l53 4 -5 -50 c-8 -87 -40 -103 -128 -65 l-48 20 19 -21 c18 -20 18 -20 -14 -9
-37 13 -38 14 -44 92 -4 45 -3 57 9 57 8 0 14 9 14 21 0 18 4 20 33 14 17 -4
32 -8 32 -9z m95 -16 c0 -16 -7 -20 -30 -20 -23 0 -30 4 -30 20 0 16 7 20 30
20 23 0 30 -4 30 -20z m40 0 c0 -11 -4 -20 -10 -20 -5 0 -10 9 -10 20 0 11 5
20 10 20 6 0 10 -9 10 -20z m40 5 c0 -8 -4 -15 -10 -15 -5 0 -10 7 -10 15 0 8
5 15 10 15 6 0 10 -7 10 -15z m-225 -182 c31 -15 35 -21 35 -55 0 -45 -12 -48
-70 -18 l-40 20 17 35 c9 19 18 35 20 35 1 0 18 -8 38 -17z m-227 -50 c-15 -2
-42 -2 -60 0 -18 2 -6 4 27 4 33 0 48 -2 33 -4z m142 -13 c0 -11 73 -50 94
-50 9 0 31 -14 51 -32 l36 -31 -7 -138 c-7 -133 -6 -140 26 -268 19 -72 30
-134 26 -138 -12 -12 -40 11 -63 53 -12 21 -58 133 -102 248 -103 268 -110
280 -148 284 -71 7 -124 -84 -104 -179 12 -53 68 -198 125 -322 48 -105 27
-88 -28 21 -109 218 -141 339 -112 416 20 53 35 67 117 111 66 36 89 42 89 25z
m2379 -222 c0 -13 -24 -126 -52 -252 l-52 -229 -95 1 c-161 3 -340 14 -345 22
-3 4 19 110 48 236 l53 229 140 5 c310 13 304 13 303 -12z m-1199 -47 c0 -5
-37 -12 -82 -16 -46 -4 -93 -11 -106 -16 -17 -7 -39 -42 -79 -129 -31 -66 -60
-120 -65 -120 -9 0 18 62 78 183 43 86 41 85 156 97 40 4 79 8 86 9 6 0 12 -3
12 -8z m-411 -271 c11 -6 7 -12 -17 -24 -23 -12 -45 -14 -91 -10 -54 6 -59 9
-51 25 6 10 20 20 32 22 28 6 108 -2 127 -13z m144 -49 c10 -10 7 -12 -13 -11
-46 4 -70 0 -70 -11 0 -7 12 -9 33 -7 27 4 29 3 13 -6 -10 -6 -39 -24 -64 -41
-35 -22 -60 -30 -109 -33 -51 -4 -63 -1 -63 11 0 8 -3 29 -6 46 -6 30 -6 31
32 31 22 0 60 11 85 23 38 20 55 23 98 17 28 -3 57 -12 64 -19z m-303 -48 c0
-10 -30 -13 -117 -12 -130 1 -123 9 27 33 76 12 89 9 90 -21z m400 -12 c-42
-13 -134 -21 -124 -12 12 12 47 18 104 19 35 0 40 -1 20 -7z m800 -11 c0 -6
-134 -10 -381 -10 -251 0 -378 3 -374 10 4 6 142 10 381 10 243 0 374 -4 374
-10z m-2099 -71 c37 -34 82 -82 98 -108 33 -52 96 -199 88 -207 -16 -16 -317
287 -317 319 0 12 44 55 58 57 2 0 35 -28 73 -61z m398 36 c39 -19 64 -66 71
-130 l5 -50 135 -6 c74 -4 154 -7 178 -8 31 -1 50 -8 67 -26 25 -24 35 -63 14
-49 -6 3 -107 7 -225 9 -154 1 -218 6 -229 15 -11 9 -15 32 -15 87 0 69 -2 77
-29 104 -27 26 -36 29 -98 29 -140 0 -263 12 -263 26 0 27 337 26 389 -1z
m1744 -32 c-13 -2 -35 -2 -50 0 -16 2 -5 4 22 4 28 0 40 -2 28 -4z m195 0
c-21 -2 -57 -2 -80 0 -24 2 -7 4 37 4 44 0 63 -2 43 -4z m132 -2 c0 -28 -182
-38 -410 -21 -79 6 -54 7 105 4 189 -3 261 3 303 25 1 0 2 -3 2 -8z m630 -66
l0 -45 -130 0 c-74 0 -130 4 -130 9 0 5 10 25 23 45 l22 35 108 1 107 0 0 -45z
m-2372 9 c12 -8 22 -22 22 -31 0 -14 -4 -13 -23 5 -16 15 -37 22 -68 23 -24 1
-69 4 -99 9 -50 6 -45 7 45 9 77 1 106 -3 123 -15z m-503 -95 c9 -17 15 -33
13 -35 -3 -2 -12 12 -21 31 -21 43 -13 47 8 4z m840 -179 c12 -19 -15 -47 -62
-68 -26 -11 -115 -32 -197 -47 -245 -44 -474 -34 -540 25 -17 16 -28 31 -25
34 3 4 60 -3 125 -14 65 -11 162 -20 214 -20 101 0 150 16 237 74 34 24 47 26
140 26 56 0 105 -4 108 -10z m745 -419 c24 -47 29 -69 15 -75 -18 -6 -69 81
-52 88 21 8 26 6 37 -13z"/>
<path d="M3663 2722 c-11 -7 -86 -305 -100 -393 l-5 -36 191 -7 c105 -4 195
-4 200 -1 6 3 15 31 21 63 6 31 27 128 46 214 19 86 34 159 34 162 0 9 -373 7
-387 -2z"/>
<path d="M3098 3163 c-15 -4 -18 -16 -18 -62 l0 -58 -37 -7 c-21 -3 -52 -6
-69 -6 -22 0 -33 -5 -35 -17 -2 -10 -3 -147 -1 -305 l4 -288 68 0 c47 0 73 5
83 15 11 11 47 15 143 17 l129 3 3 348 2 347 -85 0 c-50 0 -85 4 -85 10 0 10
-69 12 -102 3z m210 -330 l-3 -288 -87 -3 -88 -3 0 253 c0 139 -3 270 -6 291
l-7 37 97 0 96 0 -2 -287z m-228 -103 l0 -280 -45 0 -45 0 0 273 c0 151 3 277
7 280 3 4 24 7 45 7 l38 0 0 -280z"/>
<path d="M2465 3000 c-4 -7 50 -10 154 -10 101 0 161 4 161 10 0 6 -58 10
-154 10 -93 0 -157 -4 -161 -10z"/>
<path d="M2515 2911 c-75 -11 -21 -16 120 -10 77 3 138 6 135 7 -14 6 -221 8
-255 3z"/>
<path d="M1078 1602 c-207 -1 -328 -6 -328 -12 0 -12 -42 -10 335 -15 176 -2
326 -1 333 4 35 21 -33 26 -340 23z"/>
<path d="M4553 1588 c2 -9 24 -13 62 -13 38 0 60 4 63 13 3 9 -14 12 -63 12
-49 0 -66 -3 -62 -12z"/>
<path d="M1107 1182 c-9 -2 -17 -8 -17 -13 0 -5 273 -9 691 -9 548 0 690 3
686 13 -3 9 -146 12 -673 12 -368 0 -677 -1 -687 -3z"/>
<path d="M3120 1025 c-11 -14 40 -15 481 -13 321 2 494 7 494 13 0 6 -169 11
-481 13 -421 2 -483 0 -494 -13z"/>
<path d="M2670 1015 c0 -8 5 -15 10 -15 6 0 10 7 10 15 0 8 -4 15 -10 15 -5 0
-10 -7 -10 -15z"/>
<path d="M2747 1024 c-18 -18 16 -24 134 -24 108 0 129 2 129 15 0 13 -21 15
-128 15 -71 0 -132 -3 -135 -6z"/>
<path d="M960 989 c0 -9 204 -10 801 -7 440 3 803 9 806 12 4 3 -357 6 -800 6
-598 0 -807 -3 -807 -11z"/>
</g>
</svg>